<?xml version="1.0"?>
<svg xmlns="http://www.w3.org/2000/svg" xmlns:xlink="http://www.w3.org/1999/xlink" version="1.1" id="Layer_1" x="0px" y="0px" viewBox="0 0 512 512" style="enable-background:new 0 0 512 512;" xml:space="preserve" width="512px" height="512px" class=""><g><circle style="fill:#450C3A" cx="256" cy="256" r="256" data-original="#FFD07D" class="active-path" data-old_color="#FFD07D"/><g>
	<path style="fill:#B9974E" d="M127.384,136h257.232C397.528,136,408,146.472,408,159.384V323.08   c0,12.912-10.472,23.384-23.384,23.384H127.384c-12.912,0-23.384-10.472-23.384-23.384V159.384   C104,146.472,114.472,136,127.384,136z" data-original="#E04F5F" class="" data-old_color="#E04F5F"/>
	<polygon style="fill:#B9974E" points="337.848,416.616 337.848,323.08 220.92,323.08  " data-original="#E04F5F" class="" data-old_color="#E04F5F"/>
</g><g>
	<rect x="244.304" y="206.152" style="fill:#FFFFFF" width="23.384" height="23.384" data-original="#FFFFFF" class="" data-old_color="#FFFFFF"/>
	<rect x="197.536" y="206.152" style="fill:#FFFFFF" width="23.384" height="23.384" data-original="#FFFFFF" class="" data-old_color="#FFFFFF"/>
	<rect x="150.768" y="206.152" style="fill:#FFFFFF" width="23.384" height="23.384" data-original="#FFFFFF" class="" data-old_color="#FFFFFF"/>
	<rect x="291.04" y="206.152" style="fill:#FFFFFF" width="23.384" height="23.384" data-original="#FFFFFF" class="" data-old_color="#FFFFFF"/>
	<rect x="337.84" y="206.152" style="fill:#FFFFFF" width="23.384" height="23.384" data-original="#FFFFFF" class="" data-old_color="#FFFFFF"/>
	<rect x="244.304" y="252.92" style="fill:#FFFFFF" width="23.384" height="23.384" data-original="#FFFFFF" class="" data-old_color="#FFFFFF"/>
	<rect x="291.04" y="252.92" style="fill:#FFFFFF" width="23.384" height="23.384" data-original="#FFFFFF" class="" data-old_color="#FFFFFF"/>
	<rect x="337.84" y="252.92" style="fill:#FFFFFF" width="23.384" height="23.384" data-original="#FFFFFF" class="" data-old_color="#FFFFFF"/>
</g></g> </svg>
