<?xml version="1.0"?>
<svg xmlns="http://www.w3.org/2000/svg" id="Flat" height="512px" viewBox="0 0 512 512" width="512px" class=""><g><path d="m56 112h48v40h-48z" fill="#b01641" data-original="#B01641" class="" style="fill:#450C3A" data-old_color="#b01641"/><path d="m88 112h64v40h-64z" fill="#fc8d36" data-original="#FC8D36" class="active-path" style="fill:#B9974E" data-old_color="#fc8d36"/><rect fill="#99a2a7" height="288" rx="16" width="464" x="24" y="144" data-original="#99A2A7" class=""/><path d="m488 208v208a16 16 0 0 1 -16 16h-368v-256h32a32 32 0 0 0 32 32z" fill="#b01641" data-original="#B01641" class="" style="fill:#450C3A" data-old_color="#b01641"/><path d="m384 144v40h-144v-40l12.97-51.881a16 16 0 0 1 15.522-12.119h87.016a16 16 0 0 1 15.522 12.119z" fill="#fcb442" data-original="#FCB442" class="" style="fill:#B9974E" data-old_color="#fcb442"/><path d="m400 280h-176l16-136h144z" fill="#fc8d36" data-original="#FC8D36" class="active-path" style="fill:#B9974E" data-old_color="#fc8d36"/><circle cx="312" cy="288" fill="#5d3727" r="112" data-original="#5D3727" class=""/><circle cx="312" cy="288" fill="#99a2a7" r="80" data-original="#99A2A7" class=""/><circle cx="312" cy="288" fill="#757c80" r="40" data-original="#757C80" class="" style="fill:#450C3A" data-old_color="#757c80"/><circle cx="312" cy="288" fill="#5d3727" r="8" data-original="#5D3727" class=""/><path d="m136 176v256h-89.6c-12.376 0-22.4-7.16-22.4-16v-240z" fill="#fcb442" data-original="#FCB442" class="" style="fill:#B9974E" data-old_color="#fcb442"/></g> </svg>
