<svg id="Capa_1" enable-background="new 0 0 495.85 495.85" height="512" viewBox="0 0 495.85 495.85" width="512" xmlns="http://www.w3.org/2000/svg"><g><path d="m97.699 328.541-31.19 36.236c-1.476 1.715-4.29.664-4.28-1.599l.135-30.496c.016-3.535-2.845-6.408-6.38-6.408h-14.636c-22.836 0-41.348-18.512-41.348-41.348v-187.407c0-22.836 18.512-41.348 41.348-41.348h257.57v273.424l-196.278-3.271c-1.895-.032-3.705.781-4.941 2.217z" fill="#fee97d"/><g><path d="m108.907 209.389v117.039l190.012 3.167v-181.554h-128.664c-33.828 0-61.348 27.521-61.348 61.348z" fill="#fee45a"/><path d="m454.502 168.041c22.836 0 41.348 18.512 41.348 41.348v187.407c0 22.836-18.512 41.348-41.348 41.348h-19.438c-1.016 0-1.978.459-2.618 1.248l-31.598 38.994c-.884 1.09-2.647.466-2.647-.938v-35.934c0-1.861-1.509-3.37-3.37-3.37h-224.576c-22.836 0-41.348-18.512-41.348-41.348v-187.407c0-22.836 18.512-41.348 41.348-41.348z" fill="#b3dafe"/><path d="m387.607 70.337c0-29.508-23.921-53.429-53.429-53.429-29.508 0-53.429 23.921-53.429 53.429v83.703h32v-83.703c0-11.816 9.612-21.429 21.428-21.429s21.429 9.613 21.429 21.429v83.703h32v-83.703z" fill="#e5e1e5"/><path d="m236.134 168.041v32.621c0 41.65 33.885 75.535 75.534 75.535h45.021c41.649 0 75.534-33.885 75.534-75.535v-32.621z" fill="#8ac9fe"/><path d="m398.406 116.736h-128.456c-7.631 0-13.817 6.186-13.817 13.817v70.109c0 30.671 24.864 55.534 55.534 55.534h45.021c30.671 0 55.534-24.864 55.534-55.534v-70.109c.001-7.631-6.185-13.817-13.816-13.817z" fill="#f79595"/><path d="m352.195 184.063c4.003-4.516 6.336-10.544 6.023-17.122-.576-12.132-10.385-22.097-22.507-22.848-13.987-.867-25.601 10.221-25.601 24.021 0 6.117 2.285 11.697 6.045 15.942 1.412 1.594 1.953 3.775 1.411 5.834l-3.815 14.497c-1.84 6.994 3.435 13.838 10.668 13.838h19.519c7.232 0 12.508-6.843 10.668-13.838l-3.815-14.497c-.542-2.056-.006-4.236 1.404-5.827z" fill="#f37c7c"/></g></g></svg>