<svg height="512pt" viewBox="0 0 512.00873 512" width="512pt" xmlns="http://www.w3.org/2000/svg"><path d="m336 392.003906c61.109375.085938 117.433594-33.0625 147.023438-86.53125 29.589843-53.46875 27.765624-118.796875-4.757813-170.53125l17.734375-70.9375-70.9375 17.738282c-60.464844-37.871094-138.257812-33.398438-193.988281 11.148437s-77.230469 119.441406-53.613281 186.765625c23.617187 67.324219 87.191406 112.378906 158.539062 112.347656zm0 0" fill="#ff8a65"/><path d="m176 120.003906c-61.109375-.085937-117.433594 33.066406-147.023438 86.53125-29.589843 53.46875-27.765624 118.796875 4.757813 170.535156l-17.734375 70.933594 70.9375-17.734375c60.464844 37.867188 138.257812 33.398438 193.988281-11.148437s77.230469-119.445313 53.613281-186.769532c-23.613281-67.324218-87.191406-112.378906-158.539062-112.347656zm0 0" fill="#ffe082"/><path d="m176 424.003906c-25.496094-.015625-50.472656-7.226562-72.054688-20.800781l-11.546874-7.246094-32.398438 8.046875 8.089844-32.398437-7.25-11.546875c-32.792969-52.550782-25.894532-120.628906 16.773437-165.535156 42.671875-44.902344 110.308594-55.265626 164.464844-25.195313s81.121094 92.964844 65.5625 152.921875c-15.554687 59.960938-69.695313 101.808594-131.640625 101.753906zm0 0" fill="#ff8a65"/><path d="m216 248.003906c.0625-19.207031-13.535156-35.75-32.394531-39.402344-18.855469-3.652343-37.648438 6.613282-44.761719 24.457032s-.539062 38.222656 15.660156 48.546875l-18.503906 86.398437h80l-18.503906-86.398437c11.503906-7.304688 18.484375-19.976563 18.503906-33.601563zm0 0" fill="#a6e7ff"/><g fill="#fff"><path d="m304 128.003906h144v16h-144zm0 0"/><path d="m336 168.003906h32v16h-32zm0 0"/><path d="m384 168.003906h64v16h-64zm0 0"/><path d="m416 208.003906h32v16h-32zm0 0"/><path d="m352 208.003906h48v16h-48zm0 0"/><path d="m400 256.003906h48v16h-48zm0 0"/><path d="m368 256.003906h16v16h-16zm0 0"/><path d="m432 296.003906h16v16h-16zm0 0"/><path d="m368 296.003906h48v16h-48zm0 0"/></g><path d="m176 144.003906c-52.378906-.085937-100.65625 28.320313-126.019531 74.144532-25.363281 45.828124-23.796875 101.824218 4.089843 146.160156l5.425782 8.664062-10.519532 42.054688 42.054688-10.519532 8.664062 5.425782c51.828126 32.4375 118.492188 28.59375 166.246094-9.589844s66.171875-102.371094 45.929688-160.0625c-20.246094-57.695312-74.730469-96.300781-135.871094-96.277344zm0 272c-23.996094-.03125-47.5-6.832031-67.808594-19.617187l-14.398437-9.054688-22.792969 5.695313 5.695312-22.789063-9.054687-14.402343c-30.875-49.457032-24.386719-113.539063 15.773437-155.808594 40.15625-42.265625 103.820313-52.023438 154.796876-23.71875 50.972656 28.304687 76.347656 87.5 61.703124 143.933594-14.648437 56.4375-65.609374 95.820312-123.914062 95.761718zm0 0"/><path d="m224 248.003906c.046875-22.332031-15.316406-41.742187-37.058594-46.832031-21.742187-5.09375-44.125 5.484375-53.996094 25.515625-9.871093 20.027344-4.625 44.222656 12.65625 58.363281l-19.496093 90.953125h99.789062l-19.496093-90.953125c11.148437-9.066406 17.613281-22.675781 17.601562-37.046875zm-78.105469 112 17.601563-82.113281-4.671875-2.980469c-12.003907-7.640625-17.527344-22.285156-13.546875-35.945312 3.976562-13.660156 16.496094-23.054688 30.722656-23.054688s26.746094 9.394532 30.726562 23.054688c3.976563 13.660156-1.546874 28.304687-13.550781 35.945312l-4.671875 2.980469 17.601563 82.113281zm0 0"/><path d="m486.839844 133.605469 20.152344-80.59375-80.59375 20.152343c-75.152344-45.308593-172.234376-28.023437-227.132813 40.441407-50.300781-6.800781-101.082031 8.476562-139.273437 41.90625-38.195313 33.425781-60.070313 81.738281-59.992188 132.492187.0195312 31.859375 8.714844 63.113282 25.160156 90.402344l-20.152344 80.589844 80.59375-20.152344c75.292969 45.359375 172.53125 27.992188 227.460938-40.632812 7.597656 1.113281 15.261719 1.710937 22.9375 1.792968 63.410156.085938 121.949219-33.984375 153.191406-89.164062 31.242188-55.175782 30.34375-122.90625-2.351562-177.234375zm-310.839844 314.398437c-30.007812-.03125-59.398438-8.527344-84.800781-24.503906l-2.878907-1.816406-61.328124 15.328125 15.328124-61.3125-1.816406-2.878907c-38.617187-61.824218-30.53125-141.941406 19.664063-194.800781 50.191406-52.859375 129.78125-65.078125 193.519531-29.710937 63.738281 35.367187 95.488281 109.367187 77.195312 179.929687-18.289062 70.558594-81.988281 119.816407-154.882812 119.765625zm160-64c-3.917969 0-8-.191406-12.238281-.566406 30.996093-47.867188 36.851562-107.792969 15.703125-160.75-21.144532-52.960938-66.664063-92.371094-122.105469-105.722656 51.804687-57.820313 137.761719-69.84375 203.441406-28.457032l2.878907 1.816407 61.3125-15.328125-15.3125 61.3125 1.816406 2.878906c30.972656 49.273438 32.703125 111.488281 4.519531 162.40625-28.179687 50.921875-81.816406 82.488281-140.015625 82.410156zm0 0"/><path d="m0 .00390625h16v127.99999975h-16zm0 0"/><path d="m32 .00390625h16v95.99999975h-16zm0 0"/><path d="m64 .00390625h16v63.99999975h-16zm0 0"/><path d="m496 384.003906h16v128h-16zm0 0"/><path d="m464 416.003906h16v96h-16zm0 0"/><path d="m432 448.003906h16v64h-16zm0 0"/></svg>